HIERARCHY
ROOT Hips
{
  OFFSET -187.679 86.5976 -156.378
  CHANNELS 6 Xposition Yposition Zposition Zrotation Xrotation Yrotation
  JOINT LeftUpLeg
  {
    OFFSET 8.64259 1.95398 -2.38835
    CHANNELS 3 Zrotation Xrotation Yrotation
    JOINT LeftLeg
    {
      OFFSET 43.7702 0 0
      CHANNELS 3 Zrotation Xrotation Yrotation
      JOINT LeftFoot
      {
        OFFSET 40.6238 0 0
        CHANNELS 3 Zrotation Xrotation Yrotation
        JOINT LeftToeBase
        {
          OFFSET 12.7242 0 0
          CHANNELS 3 Zrotation Xrotation Yrotation
          End Site
          {
            OFFSET 0 0 0
          }
        }
      }
    }
  }
  JOINT RightUpLeg
  {
    OFFSET -8.2249 1.95398 -2.59336
    CHANNELS 3 Zrotation Xrotation Yrotation
    JOINT RightLeg
    {
      OFFSET 43.5653 0 0
      CHANNELS 3 Zrotation Xrotation Yrotation
      JOINT RightFoot
      {
        OFFSET 40.6238 0 0
        CHANNELS 3 Zrotation Xrotation Yrotation
        JOINT RightToeBase
        {
          OFFSET 12.7242 0 0
          CHANNELS 3 Zrotation Xrotation Yrotation
          End Site
          {
            OFFSET 0 0 0
          }
        }
      }
    }
  }
  JOINT Spine
  {
    OFFSET 0.165834 0.87714 6.61349
    CHANNELS 3 Zrotation Xrotation Yrotation
    JOINT Spine1
    {
      OFFSET 7.38963 1.71661e-005 0
      CHANNELS 3 Zrotation Xrotation Yrotation
      JOINT Spine2
      {
        OFFSET 11.9445 1.14441e-005 0
        CHANNELS 3 Zrotation Xrotation Yrotation
        JOINT Spine3
        {
          OFFSET 14.7254 4.19617e-005 0
          CHANNELS 3 Zrotation Xrotation Yrotation
          JOINT Spine4
          {
            OFFSET 10.9679 0 0
            CHANNELS 3 Zrotation Xrotation Yrotation
            JOINT RightShoulder
            {
              OFFSET 2.46616 -1.6653 3.69651
              CHANNELS 3 Zrotation Xrotation Yrotation
              JOINT RightArm
              {
                OFFSET 13.0012 0 0
                CHANNELS 3 Zrotation Xrotation Yrotation
                JOINT RightForeArm
                {
                  OFFSET 28.7848 1.52588e-005 0
                  CHANNELS 3 Zrotation Xrotation Yrotation
                  JOINT RightHand
                  {
                    OFFSET 26.5688 1.52588e-005 0
                    CHANNELS 3 Zrotation Xrotation Yrotation
                    End Site
                    {
                      OFFSET 0 0 0
                    }
                  }
                }
              }
            }
            JOINT LeftShoulder
            {
              OFFSET 2.38034 -1.29275 -3.7523
              CHANNELS 3 Zrotation Xrotation Yrotation
              JOINT LeftArm
              {
                OFFSET 16.3182 6.10352e-005 0
                CHANNELS 3 Zrotation Xrotation Yrotation
                JOINT LeftForeArm
                {
                  OFFSET 27.0901 0 0
                  CHANNELS 3 Zrotation Xrotation Yrotation
                  JOINT LeftHand
                  {
                    OFFSET 24.5451 1.52588e-005 0
                    CHANNELS 3 Zrotation Xrotation Yrotation
                    End Site
                    {
                      OFFSET 0 0 0
                    }
                  }
                }
              }
            }
            JOINT Neck
            {
              OFFSET 5.0226 -0.0266342 0
              CHANNELS 3 Zrotation Xrotation Yrotation
              JOINT Head
              {
                OFFSET 6.69363 2.86102e-005 0
                CHANNELS 3 Zrotation Xrotation Yrotation
                End Site
                {
                  OFFSET 0 0 0
                }
              }
            }
          }
        }
      }
    }
  }
}
MOTION
Frames:	9
Frame Time:	0.0416667
16.0806 99.7728 -31.0426 -131.993 -76.7669 -134.867 -175.478 -4.72712 83.1627 -27.9481 14.8796 5.9159 79.123 8.05995 -0.541932 12.2815 -7.81844 2.22226 178.096 16.3172 89.8462 -25.234 -3.41285 -1.48685 60.7667 -1.72021 -0.508284 25.4502 -1.09778 1.83292 -0.161137 8.20153 -89.4852 10.4701 -0.0847661 1.03042 -1.20129 -0.0393375 1.03315 -23.7335 -0.390519 0.957314 -3.72089 -0.390529 0.957313 86.3508 -49.3298 -106.367 32.1166 -18.7633 0.637815 -18.7686 -17.8513 -20.1251 -6.98412 -0.00319814 -5.32745 -88.5509 -42.9094 79.653 -14.3589 5.25377 -26.8266 10.4281 -7.30933 -20.1841 0.941709 -0.0873256 -4.20714 5.78784 3.30062 -2.29216 10.9751 3.58271 -0.572677 
14.9924 99.1232 -23.3883 -140.498 -79.5735 -143.65 -173.978 -10.9767 85.0867 -24.1627 19.8697 5.72398 80.8947 9.70954 -0.17105 13.4951 -7.43747 2.5614 177.532 14.0586 89.6564 -9.03744 -5.71192 -0.55741 57.9261 -0.6653 -0.118047 26.1559 -0.876986 1.48501 -0.391876 8.06543 -89.4537 10.745 -0.528338 1.13638 -0.926382 -0.477814 1.15853 -23.4595 -0.845432 0.925077 -3.44682 -0.845429 0.925081 85.3871 -50.9789 -107.317 32.6661 -16.1591 3.36731 -18.9326 -17.569 -19.7471 -7.53617 0.00253116 -5.41165 -88.4338 -42.5798 79.7694 -16.6451 1.4609 -31.337 13.1156 -1.58053 -23.1327 0.995513 -0.0962678 -4.46247 6.33867 2.82641 -3.75222 10.1186 3.60703 1.11337 
13.2905 98.2446 -14.8754 -155.79 -81.8681 -157.555 -171.283 -16.4987 89.456 -22.1732 23.9845 6.14495 82.2554 10.7968 -0.566562 15.2118 -7.29962 3.93421 177.899 18.599 91.0536 -22.7431 -3.17257 -0.540855 56.9459 0.556391 -0.365941 22.8593 -1.89112 2.83241 -0.530517 7.90999 -89.7134 11.0559 -0.923163 0.65779 -0.614896 -0.893318 0.697777 -23.1522 -1.07816 0.349917 -3.13957 -1.07818 0.349902 86.5268 -50.3331 -105.802 34.3498 -15.5397 3.00741 -17.3163 -16.3135 -16.1385 -6.26363 0.0424619 -6.29067 -89.0207 -44.7816 79.3169 -21.3444 -1.74518 -29.6175 15.351 2.46007 -24.324 0.440104 -0.0966376 -4.47142 7.89221 2.46908 -2.46352 9.38784 3.07717 1.57155 
11.4216 98.2478 -5.98037 -177.012 -81.7928 -176.089 -168.208 -19.9311 95.699 -24.4264 29.0033 8.03424 75.7563 8.27878 0.437995 27.25 -1.73312 3.18888 177.039 16.6935 93.7316 -31.5949 -1.62093 0.831071 61.5251 -0.551678 -1.24743 21.1934 -2.18059 2.74939 -0.565673 7.85163 -90.0735 11.1723 -1.15997 -0.031961 -0.498097 -1.16025 0.0191135 -23.0371 -1.09673 -0.379143 -3.02449 -1.09674 -0.379165 86.6937 -49.9601 -105.66 33.903 -15.7685 1.82261 -17.3135 -16.0868 -16.2122 -6.53756 0.0284075 -5.97614 -88.9779 -45.315 79.5027 -23.4582 5.18821 -22.1644 12.3118 -2.45415 -16.8121 0.0158649 -0.0916765 -4.40522 7.4522 2.13382 -0.653092 9.84606 2.36529 1.38958 
9.68293 98.7155 1.30849 158.551 -80.5142 161.239 -168.213 -12.2154 99.9375 -43.1775 34.3494 10.5815 67.0597 4.41878 1.31999 24.2137 -1.69562 -0.216686 175.944 11.0707 95.24 -32.4679 1.40955 3.08986 66.3612 -1.87012 -1.44775 21.9712 -2.49962 4.06116 -0.45437 7.81052 -90.2555 11.2511 -1.02309 -0.407464 -0.419467 -1.04004 -0.362032 -22.9565 -0.853336 -0.696119 -2.94387 -0.853343 -0.696127 86.5202 -49.81 -105.966 31.6823 -16.4787 -0.670154 -17.85 -15.6854 -17.7778 -6.9614 0.0532131 -6.34699 -88.7688 -44.2559 79.6011 -26.4 18.6776 -14.3512 8.99323 -7.251 -6.89023 -4.574 -0.0800094 -4.53833 6.91269 0.751108 -0.427826 8.91731 0.912051 0.928697 
8.72075 98.7683 6.56441 145.074 -78.2455 148.849 -171.208 0.780321 100.25 -63.1993 27.6626 11.1383 60.6077 1.13897 0.427839 11.3242 -5.77355 -2.55751 175.219 6.0631 96.0566 -32.1612 3.99511 4.95046 68.9592 -2.74494 -0.0434149 23.9536 -1.95932 3.6278 -0.0575138 8.03345 -90.3996 10.805 -0.298878 -0.7661 -0.866186 -0.332294 -0.752217 -23.3994 -0.0548255 -0.820507 -3.38671 -0.054828 -0.820511 87.044 -48.6608 -105.505 27.8022 -17.4546 -6.20444 -19.0964 -17.0604 -20.1735 -7.69283 0.0142618 -5.61613 -89.3994 -45.7294 78.9316 -29.0461 19.9586 -5.93826 8.64325 -5.59669 -5.7791 -4.51043 -0.101622 -3.25321 8.8323 -1.2404 -0.180262 9.42155 -0.972912 1.80946 
8.53483 99.2691 11.0605 139.563 -76.7378 142.201 -173.229 11.1622 97.1282 -66.7063 20.8907 8.52237 67.5246 4.47815 0.857124 9.48492 -7.26021 -1.16618 174.997 1.276 95.1948 -30.1563 6.16677 5.02417 71.7602 -3.11769 0.470763 22.6941 -2.44035 4.30461 0.523996 8.17279 -90.3269 10.5316 0.893558 -0.729849 -1.13925 0.860585 -0.768478 -23.6762 1.07159 -0.427543 -3.66351 1.07161 -0.427544 86.2197 -48.73 -106.749 21.103 -18.251 -11.4112 -18.2962 -17.3684 -18.8078 -9.29535 -0.0101443 -5.11914 -89.4486 -46.9592 79.1294 -31.436 13.6913 2.55756 8.84487 -9.88082 -9.6896 -3.2477 -0.0996383 -2.66775 7.82057 -3.12599 0.303809 10.9989 -2.83038 2.25535 
9.30136 99.6422 15.3455 131.234 -76.0872 131.641 -175.081 17.2633 91.7097 -53.9657 21.5274 6.02167 69.9607 5.56891 0.709223 12.3542 -6.27903 -0.733 174.17 -2.15006 93.1611 -27.2599 6.58026 4.28716 72.655 -2.47361 1.19444 24.0617 -1.67995 2.82287 0.924596 8.13681 -90.1052 10.6046 1.79314 -0.371225 -1.06521 1.77506 -0.449816 -23.6103 1.82179 0.185036 -3.59767 1.82178 0.185025 86.7286 -47.3139 -106.398 17.5591 -18.8549 -16.877 -16.9458 -17.1198 -16.438 -9.1758 0.0134835 -5.43676 -88.274 -45.6573 80.6842 -34.1837 13.0832 7.40024 8.72095 -9.85744 -13.2278 -3.70151 -0.104729 -2.75959 6.4272 -4.1602 1.35425 10.648 -4.04483 2.3108 
10.346 99.803 19.7609 124.083 -76.0221 123.488 -176.712 18.7959 87.9403 -31.5638 15.6928 3.39202 65.6518 3.35662 -1.0798 13.161 -6.32822 0.0535421 174.562 -5.67086 92.7646 -23.0901 8.25906 3.31921 73.7988 -2.67139 -0.312422 25.4166 -2.13686 5.04967 1.19393 8.0518 -90.0801 10.7759 2.34055 -0.375947 -0.892981 2.32173 -0.478652 -23.4449 2.34527 0.345263 -3.43227 2.34527 0.345262 87.6677 -45.5693 -105.447 14.7338 -19.7282 -22.0758 -17.1772 -17.5884 -17.4367 -10.4056 -0.0385853 -4.76655 -87.7541 -45.9516 81.5586 -35.6404 11.5889 9.47621 9.35462 -7.9886 -14.4091 -3.01413 -0.111743 -2.09574 6.03205 -4.30583 4.46424 10.6235 -4.84509 1.76067 
